PathFileType	4	(X/Y/Z)	F:\MotionCapture\20160217\3\Generated_files\P_3_test01-Dynamic.trc
DataRate	CameraRate	NumFrames	NumMarkers	Units	OrigDataRate	OrigDataStartFrame	OrigNumFrames
120.00	120.00	      4	39	mm	120.00	1179	      2357
Frame#	Time	Top.Head			Front.Head			Rear.Head			R.Shoulder			R.Offset			R.Elbow			R.Wrist			L.Shoulder			L.Elbow			L.Wrist			R.ASIS			L.ASIS			V.Sacral			R.Thigh			R.Knee			R.Shank			R.Ankle			R.Heel			R.Toe			L.Thigh			L.Knee			L.Shank			L.Ankle			L.Heel			L.Toe			R1			R2			R3			R4			R5			R6			R7			L1			L2			L3			L4			L5			L6			L7			V_Mid_ASIS			V_Pelvis_Origin			V_R.Hip_JC			V_L.Hip_JC			V_R.Knee_JC			V_L.Knee_JC			V_R.Ankle_JC			V_L.Ankle_JC			V_Mid_Hip			V_Mid_Shoulder			V_R.Hand			V_L.Hand			V_R.Toe_Offset_Static			V_L.Toe_Offset_Static			V_R.Toe_Offset			V_L.Toe_Offset			
		X1	Y1	Z1	X2	Y2	Z2	X3	Y3	Z3	X4	Y4	Z4	X5	Y5	Z5	X6	Y6	Z6	X7	Y7	Z7	X8	Y8	Z8	X9	Y9	Z9	X10	Y10	Z10	X11	Y11	Z11	X12	Y12	Z12	X13	Y13	Z13	X14	Y14	Z14	X15	Y15	Z15	X16	Y16	Z16	X17	Y17	Z17	X18	Y18	Z18	X19	Y19	Z19	X20	Y20	Z20	X21	Y21	Z21	X22	Y22	Z22	X23	Y23	Z23	X24	Y24	Z24	X25	Y25	Z25	X26	Y26	Z26	X27	Y27	Z27	X28	Y28	Z28	X29	Y29	Z29	X30	Y30	Z30	X31	Y31	Z31	X32	Y32	Z32	X33	Y33	Z33	X34	Y34	Z34	X35	Y35	Z35	X36	Y36	Z36	X37	Y37	Z37	X38	Y38	Z38	X39	Y39	Z39	

1179	9.817	-164.44868	-9.48069	1909.03027	-78.37000	-9.10800	1799.67834	-287.27338	-6.47483	1869.62903	-284.99844	-206.59624	1633.93274	-434.90439	53.66044	1501.93347	-317.99417	-334.58395	1319.93994	-68.93884	-255.46294	1314.04504	-274.19345	190.66327	1638.11621	-344.93549	332.95578	1339.87024	-107.10000	252.45245	1284.76758	-267.99832	-154.36880	1157.81299	-254.11623	130.07222	1157.61267	-480.51657	-0.28883	1173.83350	-220.48672	-147.33040	783.76501	-297.36682	-192.24818	670.60529	-281.98615	-132.10381	435.28543	-354.70621	-202.63716	275.30350	-407.43939	-134.84044	289.78690	-250.38235	-172.34015	149.98648	-214.67363	126.84613	831.03174	-304.32379	186.87125	675.08362	-280.93958	127.66459	528.16791	-363.47714	208.33244	269.44727	-412.82986	145.29350	283.67899	-253.02580	202.09138	158.71527	-216.73392	-152.31293	120.50682	-235.83397	-141.17468	161.27135	-301.26935	-114.45175	245.27913	-368.37091	-107.87633	274.23447	-391.01273	-178.51059	264.67941	-335.20728	-202.06139	204.57481	-287.86432	-206.75252	153.65475	-218.95340	173.01863	129.48235	-235.41982	167.75610	164.26784	-303.38541	123.72464	236.71912	-375.07031	116.75050	269.70038	-395.07806	186.50407	262.20709	-341.16403	217.18164	210.76155	-292.84677	228.43346	169.58856																																																	-720.25836	-86.71002	141.09537	-270.91907	216.34340	163.32500	
1180	9.825	-162.20833	-9.36351	1909.59045	-76.70882	-8.42347	1799.70557	-285.13190	-6.40654	1870.68738	-283.92194	-206.74950	1634.63123	-434.92841	53.15285	1502.16895	-317.70676	-334.73322	1320.68250	-68.10033	-255.77753	1316.10925	-272.51501	190.82515	1638.25806	-345.73447	333.35349	1341.59131	-108.72847	252.87144	1286.04504	-268.77621	-154.58002	1158.14771	-255.71849	130.39560	1158.16467	-481.69626	-0.34698	1173.32715	-219.48967	-147.30823	785.55414	-294.82434	-191.99019	672.04919	-281.37872	-131.53281	436.61237	-354.47809	-202.28178	277.22495	-407.69888	-134.79578	291.65524	-251.54849	-170.83731	152.03624	-213.78246	126.92044	832.95032	-302.51917	186.56526	676.14648	-280.33640	126.75007	529.11322	-364.07193	207.52516	270.78491	-415.23328	144.99329	285.89114	-255.34171	199.31168	159.07939	-217.89819	-151.19719	121.52700	-235.34514	-140.89969	162.68039	-301.92184	-113.63415	246.55939	-368.23380	-107.48297	275.99515	-391.07050	-178.38115	266.53656	-335.44238	-201.58795	206.30029	-288.60605	-206.10831	155.24362	-222.05684	169.90845	129.40347	-237.80489	164.88078	164.94995	-305.37711	122.32815	237.97867	-376.72318	115.97683	271.34961	-397.86810	185.54951	265.30209	-342.65430	216.03685	212.00607	-294.55054	226.00574	170.13179																																																	-275.02328	215.44389	165.25778	
1181	9.833	-160.17877	-9.25944	1909.15417	-75.37885	-8.35214	1798.74036	-283.53494	-6.57928	1870.87561	-282.82730	-206.71808	1634.62854	-434.84534	52.86228	1502.05750	-317.51883	-334.92264	1320.99744	-67.99405	-255.46286	1317.42725	-271.52689	191.15404	1638.30676	-348.88318	334.12054	1342.53870	-110.77369	253.99129	1286.00842	-269.58115	-154.66882	1157.94641	-256.98123	130.86395	1158.18689	-483.52060	-0.60160	1171.99817	-217.71254	-146.58734	786.62109	-292.99915	-191.74138	672.91522	-280.36578	-130.86642	437.65710	-354.06091	-201.80850	278.29971	-407.79846	-134.75027	293.11288	-251.35786	-170.29468	152.51312	-212.58383	126.56027	834.50000	-299.84851	186.35542	676.89880	-279.52524	125.81101	529.41705	-365.22678	206.71925	271.48218	-416.67926	145.29869	287.31143	-257.43149	197.15689	158.89024	-218.06470	-150.07639	122.25431	-235.57668	-139.97871	162.80780	-301.66644	-113.14232	247.40021	-368.48135	-106.94968	277.00522	-390.83069	-177.92627	267.98798	-335.68906	-201.02594	207.43997	-288.17957	-204.71164	156.29231	-224.56412	167.03412	129.03920	-240.37715	162.04318	164.55968	-307.62827	120.66793	238.38492	-378.43658	115.25286	272.28180	-396.98184	185.06049	264.61655	-343.75848	214.64709	212.59821	-295.83316	224.53204	170.63089																																																	-277.59714	213.47971	165.85834	
1182	9.842	-158.18744	-9.08319	1907.89099	-73.36872	-8.08924	1797.23987	-281.25964	-6.21381	1870.29590	-281.48666	-206.44795	1634.26099	-434.21420	52.54060	1501.85889	-317.17798	-335.07639	1320.96692	-67.64825	-255.28619	1317.79053	-270.34833	191.36485	1637.64746	-350.30661	334.58743	1342.99207	-112.33726	254.75473	1285.63525	-270.84064	-154.87654	1157.39453	-257.85690	130.87685	1157.84546	-485.14185	-0.56225	1170.16772	-216.10023	-145.35538	787.38715	-290.31915	-191.33365	673.02179	-279.10309	-130.54730	437.70984	-353.12100	-201.32384	278.59018	-407.25244	-134.43452	293.41504	-251.30016	-169.89250	152.62674	-211.43274	125.69823	835.22961	-297.65686	186.07330	676.99750	-279.33618	124.93539	529.20618	-366.29382	206.04982	271.49442	-419.86996	144.69067	287.64874	-258.70105	194.35489	158.98915	-217.54538	-149.31578	122.12687	-235.46324	-139.34790	162.72432	-301.31509	-112.55338	247.53217	-368.42764	-106.59177	277.40723	-390.36859	-177.67010	268.28113	-334.87134	-200.74184	207.94415	-287.79691	-204.72110	156.41458	-226.94154	164.41621	128.47035	-242.23116	159.46738	163.95935	-310.04358	119.06995	238.34064	-381.96783	114.05428	272.68094	-398.52203	184.30894	264.89508	-345.11923	213.20386	212.63496	-296.55157	221.69243	171.30647																																																	-157.67595	59.96384	128.18700	
